# xmcd
#
# Track frame offsets:
#	150
#	14007
#	25924
#	39351
#	51059
#	64856
#	85138
#	100248
#	113679
#	127623
#	142934
#	157687
#	173162
#	190284
#	211810
#	226023
#	240461
#	253842
#	267932
#	285187
#
# Disc length: 4007 seconds
#
# Revision: 0
# Processed by: cddbd v1.5PL3 Copyright (c) Steve Scherf et al.
# Submitted via: audiograbber 1.83.01
#
DISCID=f80fa514
DTITLE=Koch Universal - Country in Gold CD 01
DYEAR=2003
DGENRE=Country
TTITLE0=Johnny Hill - Suchst du Gold
TTITLE1=Linda Feller - Es gibt Männer, soviel Männer
TTITLE2=Truck Stop - Take ist easy altes Haus
TTITLE3=Greyhounds - Nimm es leicht
TTITLE4=Country Rose - Drunter und drüber
TTITLE5=Gunter Gabriel - Ich bin ein Straßenhund
TTITLE6=Mike Herman and Booze Company - Hey Trucker
TTITLE7=Lady Dagmar - Lass mich in Ruhe
TTITLE8=Larry Schuba and Western Union - Einfach mal einfach nichts tun
TTITLE9=Frank Faber - Wir versuchen´s noch mal mit Liebe
TTITLE10=Hanna and Daana - Wenn du wieder da bist
TTITLE11=Joe Hodgkins Boss Band - Nimm dir Zeit für deine Freunde
TTITLE12=Muck - Die richtige Frau
TTITLE13=Gunter Gabriel and Linda Feller - Wenn ich nur ein Trucker wär
TTITLE14=Iris McCollins - Liebeskrank
TTITLE15=Dave Dudley - Im Stau
TTITLE16=Country Roads - Trucker sind Freunde
TTITLE17=Truck Stop - Das gibts doch nur in Dallas
TTITLE18=Gunter Gabriel - Du bist das Gold im meinem Leben
TTITLE19=Linda Feller - Lebenslänglich Liebe pur
EXTD=
EXTT0=
EXTT1=
EXTT2=
EXTT3=
EXTT4=
EXTT5=
EXTT6=
EXTT7=
EXTT8=
EXTT9=
EXTT10=
EXTT11=
EXTT12=
EXTT13=
EXTT14=
EXTT15=
EXTT16=
EXTT17=
EXTT18=
EXTT19=
PLAYORDER=
